PathFileType	4	(X/Y/Z)	c:/Users/goper/Files/vsCode/490R/osim_files/A01/A01_Slow_01.trc
DataRate	CameraRate	NumFrames	NumMarkers	Units                	OrigDataRate	OrigDataStartFrame	OrigNumFrames
120.00	120.00	9	36	mm	120.0	1069	1710
                Frame#	Time	Mobility_markerset:LPSIS			Mobility_markerset:LASIS			Mobility_markerset:LTH1			Mobility_markerset:LTH2			Mobility_markerset:LTH3			Mobility_markerset:LTH4			Mobility_markerset:LLFE			Mobility_markerset:LMFE			Mobility_markerset:LSH1			Mobility_markerset:LSH2			Mobility_markerset:LSH3			Mobility_markerset:LSH4			Mobility_markerset:LLMAL			Mobility_markerset:LMMAL			Mobility_markerset:LCAL			Mobility_markerset:LMTP5			Mobility_markerset:LTOE			Mobility_markerset:LMTP1			Mobility_markerset:RPSIS			Mobility_markerset:RASIS			Mobility_markerset:RTH1			Mobility_markerset:RTH2			Mobility_markerset:RTH3			Mobility_markerset:RTH4			Mobility_markerset:RLFE			Mobility_markerset:RMFE			Mobility_markerset:RSH1			Mobility_markerset:RSH2			Mobility_markerset:RSH3			Mobility_markerset:RSH4			Mobility_markerset:RLMAL			Mobility_markerset:RMMAL			Mobility_markerset:RCAL			Mobility_markerset:RMTP1			Mobility_markerset:RTOE			Mobility_markerset:RMTP5		
		X1	Y1	Z1	X2	Y2	Z2	X3	Y3	Z3	X4	Y4	Z4	X5	Y5	Z5	X6	Y6	Z6	X7	Y7	Z7	X8	Y8	Z8	X9	Y9	Z9	X10	Y10	Z10	X11	Y11	Z11	X12	Y12	Z12	X13	Y13	Z13	X14	Y14	Z14	X15	Y15	Z15	X16	Y16	Z16	X17	Y17	Z17	X18	Y18	Z18	X19	Y19	Z19	X20	Y20	Z20	X21	Y21	Z21	X22	Y22	Z22	X23	Y23	Z23	X24	Y24	Z24	X25	Y25	Z25	X26	Y26	Z26	X27	Y27	Z27	X28	Y28	Z28	X29	Y29	Z29	X30	Y30	Z30	X31	Y31	Z31	X32	Y32	Z32	X33	Y33	Z33	X34	Y34	Z34	X35	Y35	Z35	X36	Y36	Z36

1069	8.90000	0.00000	0.00000	0.00000	-3444.05664	1032.70593	256.86142	-3434.32861	711.59692	318.38895	-3457.65161	669.71979	314.66232	-3490.46167	735.53046	322.09155	-3504.82202	692.35468	315.62350	-3503.58862	558.21490	288.97144	-3539.75684	552.18213	155.59334	-3380.39966	443.58347	257.28207	-3355.15283	405.59436	258.27011	-3427.82471	404.06808	262.78378	0.00000	0.00000	0.00000	-3228.78882	187.15524	218.80794	-3232.01001	189.81627	134.65599	-3152.18701	207.71921	164.56938	-3311.07764	68.21613	252.16437	-3354.78125	72.68505	190.38771	-3331.77393	74.85359	153.54625	-3216.54907	1060.53552	52.03133	-3454.93335	1014.50226	-6.42440	-3328.11401	691.50098	-76.18311	-3340.53662	649.73608	-70.31753	-3387.94971	700.21588	-79.11134	-3391.28760	658.37402	-74.11712	-3395.34473	512.83160	-30.08889	-3404.00928	525.87463	92.42539	0.00000	0.00000	0.00000	-3303.21558	269.08038	-21.04290	-3363.49902	312.04880	-29.99288	-3358.77295	267.79132	-26.79490	-3328.66284	91.84074	18.59083	-3356.80420	115.90846	98.27500	-3279.11133	71.22320	72.02197	-3486.19434	50.98001	107.28634	-3518.84131	62.72881	59.16516	-3463.75464	37.69292	-6.54533
1070	8.90833	0.00000	0.00000	0.00000	-3451.16260	1033.69080	255.34653	-3445.32837	713.65887	317.25430	-3469.18457	672.01337	313.38077	-3501.03271	738.22852	320.43936	-3516.99170	694.96027	315.15286	-3515.28027	560.76306	286.51440	-3552.17090	555.56702	153.50830	-3396.90967	442.07660	255.46724	0.00000	0.00000	0.00000	-3445.06494	404.56085	261.14627	-3413.89282	372.49020	259.30847	-3252.96753	180.90419	217.62614	-3256.23071	183.37643	133.56728	-3175.65430	198.46834	163.52629	-3338.76538	64.73787	251.71126	-3383.23755	70.84341	189.99786	-3359.64697	71.72558	153.09979	-3222.49048	1061.35559	52.04932	-3461.16675	1014.91718	-7.64139	-3332.69922	691.76447	-75.95184	-3344.73950	649.90723	-69.97567	-3393.53516	700.64972	-78.91862	-3395.83936	658.32367	-73.87678	-3399.43726	512.77850	-29.84881	-3407.93555	525.72937	92.32853	0.00000	0.00000	0.00000	-3305.06519	269.73761	-20.80903	-3365.74292	312.34784	-29.81669	-3360.49805	268.02597	-26.57853	-3328.94482	92.30415	18.74520	-3357.23242	116.12086	98.46665	-3279.38428	71.68862	72.14379	-3486.34814	50.82687	107.32166	-3519.01099	62.49203	59.18958	-3463.82031	37.73418	-6.53077
1071	8.91667	0.00000	0.00000	0.00000	-3458.41504	1034.61389	253.75587	-3456.10791	715.87317	316.07114	-3480.38379	674.47675	312.15750	-3511.45532	741.06165	318.89240	-3527.30542	697.38806	313.74197	-3526.59570	563.21307	284.13684	-3564.44019	558.83258	151.52679	-3411.81934	440.90259	253.40280	0.00000	0.00000	0.00000	-3461.83057	404.83081	259.49612	-3431.68652	371.45590	257.53513	-3277.49292	174.53204	216.49326	-3280.71777	176.73964	132.48964	-3199.88770	189.44408	161.79150	-3367.38647	61.82281	251.53796	-3410.99194	68.49454	189.91133	-3388.52856	69.05967	152.36385	-3229.04468	1061.83276	52.34633	-3467.32031	1015.34851	-8.81716	-3337.39014	691.95386	-75.82195	-3349.23462	650.03436	-69.61905	-3398.20898	700.53394	-78.67725	-3400.16016	658.16583	-73.51689	-3400.31665	511.35425	-28.47599	-3411.92700	525.62421	92.25393	0.00000	0.00000	0.00000	-3306.73071	270.46176	-20.58923	-3367.81738	312.62753	-29.59397	-3362.16406	268.36838	-26.36980	-3329.33984	92.73334	18.99796	-3357.68335	116.37046	98.71124	-3279.55908	72.11201	72.26229	-3486.51416	50.66209	107.34795	-3519.25366	62.26689	59.23467	-3463.87061	37.77252	-6.48949
1072	8.92500	0.00000	0.00000	0.00000	-3465.52783	1035.49707	252.20560	-3466.25635	717.80609	314.93158	-3490.99121	676.73712	310.86404	-3524.14697	744.96198	318.78433	-3537.30029	699.79022	312.28629	-3537.50415	565.51941	281.80820	-3576.26758	561.89789	149.52667	-3428.48755	439.05051	251.90338	0.00000	0.00000	0.00000	-3478.76660	404.77176	258.49106	-3450.63501	370.58279	256.56628	-3302.25806	168.36551	215.35744	-3307.67822	170.80214	130.91161	-3224.82227	180.32843	160.46664	-3395.84497	58.92093	251.45100	-3439.42529	66.78229	189.98059	-3417.26587	66.41625	152.35094	-3235.71411	1061.97559	52.81335	-3473.53564	1015.83411	-9.97055	-3342.14355	692.19464	-75.63013	-3353.83569	650.28168	-69.40417	-3402.82617	700.44543	-78.35168	-3404.72876	658.16974	-73.13360	-3404.03760	511.27771	-28.14090	-3415.93555	525.45410	92.20538	0.00000	0.00000	0.00000	-3308.27466	271.13757	-20.22016	-3369.83350	312.90659	-29.35080	-3363.92432	268.70367	-26.14103	-3329.81519	93.27670	19.27330	-3358.19336	116.64503	98.96998	-3279.81470	72.56457	72.51332	-3486.65918	50.48553	107.36430	-3519.48291	62.03319	59.28667	-3463.90503	37.82354	-6.47064
1073	8.93333	0.00000	0.00000	0.00000	-3472.59717	1036.24316	250.72803	-3476.01733	719.57642	313.73962	-3501.22778	678.75757	309.62192	-3533.35571	747.24731	317.12366	-3546.81372	701.93939	310.90219	-3548.21338	567.64813	279.56363	-3587.77783	564.83484	147.63277	-3442.78589	437.66989	249.54466	0.00000	0.00000	0.00000	-3495.61987	405.10748	257.04849	-3468.69238	369.82083	255.15872	-3327.30127	162.25967	214.33693	-3333.82202	164.41664	130.22375	-3249.54224	171.01408	159.09912	-3424.37939	56.23798	251.48807	-3468.29980	65.44175	190.20451	-3446.12207	64.00513	152.42786	-3241.59058	1062.44727	53.01643	-3479.68335	1016.20526	-10.99044	-3346.58472	692.46991	-75.22683	-3357.91064	650.42633	-69.06762	-3407.41650	700.37036	-78.04958	-3409.05640	658.10602	-72.83124	-3407.50391	511.24744	-27.86828	-3420.34863	525.45776	92.15609	0.00000	0.00000	0.00000	-3310.24219	272.60242	-20.31091	-3371.89038	313.18268	-29.11198	-3365.57129	269.03522	-25.80644	-3330.18066	93.78451	19.57235	-3358.92896	117.30580	99.13099	-3281.53394	71.97672	72.92886	-3486.77148	50.30861	107.37514	-3519.72266	61.81187	59.36060	-3463.94702	37.87277	-6.44024
1074	8.94167	0.00000	0.00000	0.00000	-3479.82568	1037.09949	249.31731	-3485.35791	721.02838	312.39200	-3511.09619	680.75861	308.28549	-3541.18799	748.79822	314.44424	-3556.07397	703.82629	309.47192	-3558.72974	569.52502	277.42197	-3598.99097	567.64178	145.78331	-3458.24951	435.85193	247.74355	0.00000	0.00000	0.00000	-3511.97070	405.08847	255.63390	-3486.71851	369.01730	253.78801	-3352.81445	156.41217	213.55110	-3358.37354	158.54982	129.11105	-3275.77637	163.23734	159.82837	-3453.31323	54.05522	251.46068	-3497.10718	64.50320	190.32959	-3475.17871	62.07009	152.47002	-3248.31519	1062.40955	53.54363	-3485.84570	1016.55658	-11.91985	-3351.07666	692.65149	-74.95422	-3362.18115	650.57690	-68.71337	-3411.99292	700.36145	-77.74677	-3413.36230	658.02789	-72.56100	-3410.76978	511.19400	-27.71217	-3424.35034	525.45679	92.17831	0.00000	0.00000	0.00000	-3311.92651	273.37967	-19.93552	-3373.91992	313.44180	-28.83187	-3367.25806	269.30875	-25.48584	-3330.51831	94.26421	19.85470	-3359.58081	117.51859	99.59173	-3282.07080	72.44073	73.22759	-3486.87817	50.16005	107.39980	-3519.94751	61.53151	59.43692	-3463.98315	37.92738	-6.37329
1075	8.95000	0.00000	0.00000	0.00000	-3486.96680	1037.78601	248.01924	-3494.47583	722.48535	311.46121	-3520.60400	682.28967	307.08475	-3549.87524	750.64716	312.91776	-3568.62549	709.49500	306.37671	-3569.12378	571.11737	275.34753	-3609.91406	570.29395	143.93738	-3473.74414	433.92709	246.15468	0.00000	0.00000	0.00000	-3528.56104	405.19565	254.14151	-3504.69897	368.13800	252.48280	-3378.37939	150.69965	212.74083	-3384.13818	152.65633	128.30591	0.00000	0.00000	0.00000	-3482.58569	52.22976	251.40239	-3525.95654	63.83513	190.27982	-3503.84766	60.33349	152.95320	-3255.00244	1062.66907	53.96281	-3491.95776	1016.81213	-12.74909	-3355.57300	693.09802	-74.71331	-3366.64062	650.94763	-68.65565	-3416.59497	700.33862	-77.49191	-3419.13281	658.41797	-73.64320	-3414.07056	511.22531	-27.58663	-3427.74292	525.37494	92.34574	0.00000	0.00000	0.00000	-3313.54028	274.07520	-19.53174	-3373.33569	312.42374	-27.66951	-3365.79028	267.74649	-24.07220	-3331.07617	94.86879	20.20190	-3360.09888	117.76155	99.84780	-3280.91675	73.42286	73.29380	-3486.99585	49.96342	107.42572	-3520.12622	61.22250	59.49089	-3464.04199	38.01003	-6.32801
1076	8.95833	0.00000	0.00000	0.00000	-3494.09424	1038.41418	246.85480	-3503.42114	723.68536	310.49063	-3529.82275	683.83893	305.84464	-3558.46899	752.39026	311.36206	-3577.35938	711.02191	304.59314	-3579.32324	572.36353	273.34857	-3621.90576	573.39594	141.39752	-3489.13770	431.80338	244.63062	0.00000	0.00000	0.00000	-3544.94873	405.03137	252.79597	-3521.02319	366.27225	250.02327	-3403.83813	144.94029	212.30777	-3408.68237	146.52504	128.31673	-3326.31958	145.30597	156.68402	-3512.03906	50.65951	251.08411	-3554.96069	63.68030	189.89029	-3533.00098	59.20779	152.59816	-3260.39771	1063.32263	54.23414	-3498.10669	1016.87329	-13.55310	-3360.13623	693.26447	-74.58125	-3370.91504	651.05695	-68.48631	-3420.95996	700.18048	-77.29094	-3423.25635	658.35071	-73.22027	-3417.33984	511.17807	-27.45105	-3431.59473	525.52747	92.61118	0.00000	0.00000	0.00000	-3315.51001	274.88647	-19.17796	-3375.39453	312.61060	-27.33446	-3367.44824	267.99387	-23.74633	-3331.61304	95.43918	20.57730	-3360.57397	118.05222	100.30697	-3281.15552	74.01223	73.54372	-3487.12891	49.72035	107.44011	-3520.27563	60.98356	59.50407	-3464.08813	38.08490	-6.28775
1077	8.96667	0.00000	0.00000	0.00000	-3501.30688	1039.00562	245.89481	-3511.93384	724.57159	309.41513	-3538.59766	684.93799	304.71390	-3566.54297	753.61700	310.02954	-3585.90942	712.25031	302.91742	-3589.42480	573.27472	271.50537	-3631.59302	575.61566	139.59613	-3505.26685	429.26553	243.75557	0.00000	0.00000	0.00000	-3561.49146	404.85034	251.45656	-3539.55322	365.71213	247.87506	-3429.70068	139.44000	211.70146	-3434.58813	141.29779	127.80309	-3352.58350	136.61899	156.28566	-3541.80933	49.51704	250.51324	-3584.02856	64.00633	189.19531	-3562.06714	58.58767	151.94000	-3267.28101	1063.47522	54.70305	-3504.38184	1016.78992	-14.32245	-3364.77710	693.43091	-74.51218	-3375.22021	651.21008	-68.43154	-3425.80176	700.18585	-77.13470	-3427.61230	658.33313	-72.92057	-3420.62988	511.02448	-27.27789	-3435.64624	525.61023	92.89130	0.00000	0.00000	0.00000	-3317.24536	275.47751	-18.81200	-3377.40674	312.77716	-26.96934	-3369.09155	268.16483	-23.34043	-3332.01099	95.94951	20.88253	-3361.17310	118.32086	100.71333	-3281.32202	75.07202	73.50485	-3487.26001	49.53946	107.45461	-3520.45630	60.72536	59.56404	-3464.13647	38.16663	-6.23111
